<svg id="Group_1" data-name="Group 1" xmlns="http://www.w3.org/2000/svg" width="334" height="132.863" viewBox="0 0 334 132.863">
  <path id="Path_1" data-name="Path 1" d="M38.22,88.493H57.435c-2.569,6.6-8.837,10.634-18.393,10.634-13.971,0-22.6-8.566-22.6-20.286,0-12.114,9.042-20.681,21.165-20.681,8.116,0,14.589,3.545,17.57,8.075l13.973-7.682C63.085,49.3,51.474,42.8,37.707,42.8,16.543,42.8,0,58.749,0,78.741c0,19.8,16.233,35.749,38.835,35.749,20.139,0,35.446-12.8,35.446-33.877V74.7H38.22Z" fill="#fff"/>
  <path id="Path_2" data-name="Path 2" d="M37.707,42.8a42.077,42.077,0,0,1,9.714,1.123,39.072,39.072,0,0,1,8.628,3.147A34.023,34.023,0,0,1,68.841,58.1l.31.455-13.97,7.68-.258-.364a17.277,17.277,0,0,0-6.856-5.486A24.858,24.858,0,0,0,37.6,58.16a21.521,21.521,0,0,0-15.129,5.8,19.328,19.328,0,0,0-4.431,6.532,21.7,21.7,0,0,0-1.606,8.351,20.873,20.873,0,0,0,1.567,8.114,18.329,18.329,0,0,0,4.5,6.424c4.071,3.76,9.791,5.748,16.541,5.748,9.191,0,15.723-3.777,18.393-10.634H38.22V74.7H74.282v5.908A36.423,36.423,0,0,1,71.575,94.8a30.33,30.33,0,0,1-7.465,10.657,32.836,32.836,0,0,1-11.241,6.706,41.486,41.486,0,0,1-14.034,2.329,43.355,43.355,0,0,1-15.6-2.8,37.436,37.436,0,0,1-12.293-7.651A34.367,34.367,0,0,1,0,78.741,34.88,34.88,0,0,1,2.915,64.694a35.3,35.3,0,0,1,8-11.422A38.459,38.459,0,0,1,37.707,42.8ZM67.7,58.208A33.16,33.16,0,0,0,55.6,47.959a38.07,38.07,0,0,0-8.407-3.066,41.076,41.076,0,0,0-9.483-1.1,37.464,37.464,0,0,0-26.1,10.2,34.3,34.3,0,0,0-7.777,11.1A33.886,33.886,0,0,0,1,78.741,33.376,33.376,0,0,0,11.626,103.31a36.441,36.441,0,0,0,11.967,7.446,42.359,42.359,0,0,0,15.242,2.734,40.49,40.49,0,0,0,13.7-2.271,31.842,31.842,0,0,0,10.9-6.5,29.337,29.337,0,0,0,7.22-10.309,35.43,35.43,0,0,0,2.628-13.8V75.7H39.22V87.493H58.9l-.531,1.363a16.292,16.292,0,0,1-7,8.288,23.847,23.847,0,0,1-12.328,2.984c-7.006,0-12.96-2.079-17.219-6.013a19.323,19.323,0,0,1-4.739-6.772,21.867,21.867,0,0,1-1.645-8.5,22.7,22.7,0,0,1,1.682-8.734A20.322,20.322,0,0,1,21.78,63.24,22.514,22.514,0,0,1,37.6,57.16,25.863,25.863,0,0,1,48.49,59.476a18.5,18.5,0,0,1,6.984,5.454Z" fill="rgba(0,0,0,0.63)"/>
  <path id="Path_3" data-name="Path 3" d="M199.379,62.493c-7.294,0-12.021,2.561-14.9,6.5-2.875-4.137-7.4-6.5-13.457-6.5-6.885,0-11.4,2.561-13.768,5.909V63.873H141.844v49.24h15.412V85.343c0-5.812,2.877-9.258,8.015-9.258,4.931,0,7.4,3.151,7.4,8.074v28.954h15.411V85.343c0-5.812,2.877-9.258,8.015-9.258,4.931,0,7.4,3.151,7.4,8.074v28.954H218.9V82.879C218.9,70.568,211.192,62.493,199.379,62.493Z" fill="#fff"/>
  <path id="Path_4" data-name="Path 4" d="M171.024,62.493a17.774,17.774,0,0,1,7.923,1.7,14.5,14.5,0,0,1,5.535,4.8c3.149-4.313,8.161-6.5,14.9-6.5,5.793,0,10.7,1.928,14.19,5.576s5.331,8.765,5.332,14.809v30.234H203.489V84.159a8.658,8.658,0,0,0-1.849-5.883,7.02,7.02,0,0,0-5.547-2.191,7.424,7.424,0,0,0-5.934,2.45,10.327,10.327,0,0,0-2.081,6.808v27.77H172.667V84.159a8.658,8.658,0,0,0-1.849-5.883,7.02,7.02,0,0,0-5.547-2.191,7.424,7.424,0,0,0-5.934,2.45,10.327,10.327,0,0,0-2.081,6.808v27.77H141.844V63.873h15.412V68.4h0C158.814,66.2,162.674,62.493,171.024,62.493Zm13.437,8.224-.8-1.153a13.506,13.506,0,0,0-5.156-4.475,16.787,16.787,0,0,0-7.481-1.6c-7.9,0-11.5,3.437-12.951,5.485l-1.817,2.573V64.873H142.844v47.24h13.412V85.343a11.143,11.143,0,0,1,2.321-7.459,8.487,8.487,0,0,1,6.694-2.8,8.077,8.077,0,0,1,6.3,2.531,9.614,9.614,0,0,1,2.1,6.543v27.954h13.411V85.343a11.143,11.143,0,0,1,2.321-7.459,8.487,8.487,0,0,1,6.694-2.8,8.077,8.077,0,0,1,6.3,2.531,9.614,9.614,0,0,1,2.1,6.543v27.954H217.9V82.879c0-5.782-1.749-10.664-5.054-14.118s-7.954-5.268-13.468-5.268c-6.4,0-11.14,2.049-14.09,6.09Z" fill="rgba(0,0,0,0.63)"/>
  <path id="Path_5" data-name="Path 5" d="M242.462,63.873H227.051v49.241h15.411Z" fill="#fff"/>
  <path id="Path_6" data-name="Path 6" d="M242.462,113.114H227.051V63.873h15.411Zm-14.411-1h13.411V64.873H228.051Z" fill="rgba(0,0,0,0.63)"/>
  <path id="Path_7" data-name="Path 7" d="M254.358,63.872h-6.883v14.18h6.883v35.06h15.411V78.053h9.556V63.872h-9.556c0-5.712,3.8-7.386,9.556-6.894V42.8C262.269,41.811,254.358,50.083,254.358,63.872Z" fill="#fff"/>
  <path id="Path_8" data-name="Path 8" d="M276.652,42.717c.713,0,1.452.018,2.2.054l.476.023V56.972l-.531-.034c-.438-.028-.866-.042-1.27-.042a9.488,9.488,0,0,0-5.134,1.2,5.224,5.224,0,0,0-1.936,2.217,8.386,8.386,0,0,0-.684,3.556h9.556v14.18h-9.556v35.06H254.358V78.053h-6.883V63.872h6.883a26.454,26.454,0,0,1,1.5-9.249,16.99,16.99,0,0,1,4.585-6.829C264.219,44.425,269.672,42.717,276.652,42.717Zm1.673,1.032c-.567-.021-1.128-.032-1.673-.032-6.727,0-11.956,1.623-15.541,4.823-3.817,3.408-5.753,8.566-5.753,15.332v1h-6.883v12.18h6.883v35.06h13.411V77.053h9.556V64.872h-9.556v-1c0-3.078,1.036-5.3,3.08-6.615a10.3,10.3,0,0,1,5.674-1.36c.26,0,.528.005.8.016Z" fill="rgba(0,0,0,0.63)"/>
  <path id="Path_9" data-name="Path 9" d="M317.561,63.873,307.9,94.009,296.5,63.873H279.547l20.446,46.976c-2.26,6.008-5.65,8.173-12.843,8.173v13.789c14.384.69,23.528-5.514,29.282-21.173L334,63.875Z" fill="#fff"/>
  <path id="Path_10" data-name="Path 10" d="M279.547,63.873H296.5l11.4,30.136h0l9.658-30.136H334l-17.567,47.763c-2.878,7.832-6.608,13.3-11.405,16.718-4.257,3.033-9.417,4.507-15.774,4.507-.529,0-1.075-.01-1.622-.031l-.481-.018V119.026l.493-.007c3.423-.049,5.9-.631,7.779-1.831,1.961-1.249,3.414-3.263,4.571-6.339h0Zm16.262,1H281.073l20,45.948-.142.379c-1.238,3.29-2.818,5.461-4.971,6.832a14.994,14.994,0,0,1-7.809,1.976v11.84c.372.01.742.015,1.1.015,6.142,0,11.112-1.414,15.194-4.322,4.627-3.3,8.241-8.611,11.047-16.248l17.073-46.418H318.291l-10.31,32.168-1.014-2.678Z" fill="rgba(0,0,0,0.63)"/>
  <path id="Path_11" data-name="Path 11" d="M234.756,57.852a8.349,8.349,0,1,0-8.7-8.341A8.527,8.527,0,0,0,234.756,57.852Z" fill="#fff"/>
  <path id="Path_12" data-name="Path 12" d="M234.756,57.852a8.349,8.349,0,1,1,8.7-8.341A8.538,8.538,0,0,1,234.756,57.852Zm0-15.683a7.35,7.35,0,1,0,7.7,7.341A7.537,7.537,0,0,0,234.756,42.169Z" fill="rgba(0,0,0,0.63)"/>
  <path id="Path_13" data-name="Path 13" d="M213.281,37.267a8.527,8.527,0,0,0,8.7-8.341,8.71,8.71,0,0,0-17.4,0A8.527,8.527,0,0,0,213.281,37.267Z" fill="#fff"/>
  <path id="Path_14" data-name="Path 14" d="M213.281,20.584a8.537,8.537,0,0,1,8.7,8.341,8.71,8.71,0,0,1-17.4,0A8.537,8.537,0,0,1,213.281,20.584Zm0,15.683a7.537,7.537,0,0,0,7.7-7.341,7.711,7.711,0,0,0-15.4,0A7.537,7.537,0,0,0,213.281,36.267Z" fill="rgba(0,0,0,0.63)"/>
  <path id="Path_15" data-name="Path 15" d="M234.756,16.683a8.527,8.527,0,0,0,8.7-8.341,8.71,8.71,0,0,0-17.4,0A8.528,8.528,0,0,0,234.756,16.683Z" fill="#fff"/>
  <path id="Path_16" data-name="Path 16" d="M234.756,0a8.537,8.537,0,0,1,8.7,8.341,8.71,8.71,0,0,1-17.4,0A8.538,8.538,0,0,1,234.756,0Zm0,15.683a7.537,7.537,0,0,0,7.7-7.341,7.711,7.711,0,0,0-15.4,0A7.537,7.537,0,0,0,234.756,15.683Z" fill="rgba(0,0,0,0.63)"/>
  <path id="Path_17" data-name="Path 17" d="M256.231,37.267a8.527,8.527,0,0,0,8.7-8.341,8.71,8.71,0,0,0-17.4,0A8.527,8.527,0,0,0,256.231,37.267Z" fill="#fff"/>
  <path id="Path_18" data-name="Path 18" d="M256.231,20.584a8.537,8.537,0,0,1,8.7,8.341,8.71,8.71,0,0,1-17.4,0A8.537,8.537,0,0,1,256.231,20.584Zm0,15.683a7.537,7.537,0,0,0,7.7-7.341,7.711,7.711,0,0,0-15.4,0A7.537,7.537,0,0,0,256.231,36.267Z" fill="rgba(0,0,0,0.63)"/>
  <path id="Path_19" data-name="Path 19" d="M117.746,63.872V68.5c-3.393-3.743-8.425-6.008-15.308-6.008-13.461,0-24.557,11.325-24.557,26s11.1,26,24.557,26c6.883,0,11.917-2.264,15.308-6.007v4.628h15.411V63.872ZM123.022,90.2a3.256,3.256,0,0,1-.267,1.289,3.358,3.358,0,0,1-.762,1.093,3.517,3.517,0,0,1-1.14.73,3.644,3.644,0,0,1-1.344.256h-5.184a3.59,3.59,0,0,0-2.484.986,3.3,3.3,0,0,0-1.03,2.381v4.97a3.3,3.3,0,0,1-1.029,2.381,3.59,3.59,0,0,1-2.484.987h-3.555a3.588,3.588,0,0,1-2.484-.987,3.3,3.3,0,0,1-1.03-2.381v-4.97A3.3,3.3,0,0,0,99.2,94.551a3.593,3.593,0,0,0-2.484-.987H91.53a3.647,3.647,0,0,1-1.345-.256,3.527,3.527,0,0,1-1.14-.73,3.363,3.363,0,0,1-.762-1.093,3.246,3.246,0,0,1-.267-1.289V86.788a3.246,3.246,0,0,1,.267-1.289,3.363,3.363,0,0,1,.762-1.093,3.527,3.527,0,0,1,1.14-.73,3.645,3.645,0,0,1,1.345-.256h5.186a3.592,3.592,0,0,0,2.484-.987,3.3,3.3,0,0,0,1.029-2.381V75.084a3.3,3.3,0,0,1,1.029-2.382,3.594,3.594,0,0,1,2.485-.987H107.3a3.646,3.646,0,0,1,1.345.257,3.531,3.531,0,0,1,1.14.73,3.358,3.358,0,0,1,.761,1.093,3.223,3.223,0,0,1,.267,1.289v4.969a3.24,3.24,0,0,0,.268,1.289,3.355,3.355,0,0,0,.761,1.093,3.538,3.538,0,0,0,1.14.73,3.644,3.644,0,0,0,1.345.256h5.184a3.642,3.642,0,0,1,1.344.256,3.517,3.517,0,0,1,1.14.73,3.358,3.358,0,0,1,.762,1.093,3.256,3.256,0,0,1,.267,1.289Z" fill="#fff"/>
  <path id="Path_20" data-name="Path 20" d="M102.438,114.492a23.479,23.479,0,0,1-9.514-2,24.306,24.306,0,0,1-7.813-5.5,27.29,27.29,0,0,1,0-37.006,24.306,24.306,0,0,1,7.813-5.5,23.476,23.476,0,0,1,9.514-2,23.729,23.729,0,0,1,8.963,1.6,17.251,17.251,0,0,1,6.345,4.408h0v-4.63h15.411v49.241H117.746v-4.629h0a17.236,17.236,0,0,1-6.344,4.407A23.737,23.737,0,0,1,102.438,114.492Zm0-51a22.482,22.482,0,0,0-9.111,1.914,23.312,23.312,0,0,0-7.492,5.273,26.291,26.291,0,0,0,0,35.625,23.311,23.311,0,0,0,7.492,5.273,22.485,22.485,0,0,0,9.111,1.914c6.252,0,11.153-1.911,14.566-5.679l1.742-1.922v6.221h13.411V64.872H118.746v6.221L117,69.173C113.589,65.4,108.688,63.493,102.438,63.493Zm4.86,42.777h-3.555A4.563,4.563,0,0,1,100.567,105a4.324,4.324,0,0,1-1.337-3.1v-4.97a2.249,2.249,0,0,0-.291-1.107L96.59,94.564H91.53a4.624,4.624,0,0,1-1.714-.327,4.506,4.506,0,0,1-1.463-.937,4.341,4.341,0,0,1-.988-1.418,4.224,4.224,0,0,1-.349-1.685V86.788h0a4.223,4.223,0,0,1,.349-1.685,4.339,4.339,0,0,1,.988-1.418,4.5,4.5,0,0,1,1.463-.937,4.621,4.621,0,0,1,1.713-.327h4.987l2.713-2.582V75.083h0a4.326,4.326,0,0,1,1.336-3.1,4.525,4.525,0,0,1,1.943-1.1l-.209-.165h5a4.631,4.631,0,0,1,1.714.327,4.516,4.516,0,0,1,1.462.938,4.375,4.375,0,0,1,.763.971l.026-.011.193.446,0,.011h0l.007.015.192.445-.026.011a4.187,4.187,0,0,1,.177,1.216v1.846l6.972,5.49h.727a4.618,4.618,0,0,1,1.713.327,4.5,4.5,0,0,1,1.463.938,4.346,4.346,0,0,1,.988,1.417,4.233,4.233,0,0,1,.349,1.686V90.2a4.232,4.232,0,0,1-.349,1.685,4.347,4.347,0,0,1-.988,1.418,4.5,4.5,0,0,1-1.462.937,4.62,4.62,0,0,1-1.714.327h-4.841L111.81,102a4.327,4.327,0,0,1-1.336,3.007A4.562,4.562,0,0,1,107.3,106.27ZM100.2,96.5a3.282,3.282,0,0,1,.028.428V101.9a3.275,3.275,0,0,0,1.029,2.381,3.567,3.567,0,0,0,2.484.987H107.3a3.567,3.567,0,0,0,2.484-.987,3.282,3.282,0,0,0,1.016-2.089Zm-.558-1.435,11.168,6V96.932a3.282,3.282,0,0,1,1.03-2.381,3.615,3.615,0,0,1,2.484-.986v0h4.982l3.715-3.58V87.031l-4.585-3.61h-4.113a3.625,3.625,0,0,1-1.344-.256,3.507,3.507,0,0,1-1.14-.73,3.332,3.332,0,0,1-.761-1.093,3.224,3.224,0,0,1-.268-1.288V77.416l-7.035-5.539L100.229,75.3v3.591h0v1.166A3.277,3.277,0,0,1,99.2,82.434a3.569,3.569,0,0,1-2.484.986H91.732L88.017,87v2.983l3.715,3.58h4.985a3.57,3.57,0,0,1,2.484.987A3.44,3.44,0,0,1,99.643,95.068Zm13.909-.389a2.55,2.55,0,0,0-1.019.592,2.29,2.29,0,0,0-.722,1.66v2.276ZM88.417,91.759a3.363,3.363,0,0,0,.628.819,3.491,3.491,0,0,0,.838.594Zm34.2,0-1.466,1.413a3.476,3.476,0,0,0,.837-.594A3.363,3.363,0,0,0,122.621,91.759Zm-2.5-8.288,2.668,2.1-.03-.073a3.351,3.351,0,0,0-.762-1.092,3.5,3.5,0,0,0-1.14-.73A3.612,3.612,0,0,0,120.117,83.471Zm-30.234.342a3.489,3.489,0,0,0-.838.594,3.361,3.361,0,0,0-.628.819ZM111.811,78.2v1.849a2.231,2.231,0,0,0,.186.892,2.339,2.339,0,0,0,.535.768,2.512,2.512,0,0,0,.817.522,2.63,2.63,0,0,0,.975.186h2.843Zm-6.625-6.489,5.625,4.429v-1.06a3.206,3.206,0,0,0-.267-1.289h0a3.347,3.347,0,0,0-.761-1.093,3.519,3.519,0,0,0-1.139-.73,3.635,3.635,0,0,0-1.345-.257Zm-3.094.4a3.494,3.494,0,0,0-.834.59,3.388,3.388,0,0,0-.632.823Z" fill="rgba(0,0,0,0.63)"/>
</svg>
