<svg xmlns="http://www.w3.org/2000/svg" width="402" height="402" viewBox="0 0 402 402">
  <g id="Group_1" data-name="Group 1" transform="translate(-50 -14)">
    <circle id="Ellipse_1" data-name="Ellipse 1" cx="201" cy="201" r="201" transform="translate(50 14)" fill="#14084b"/>
    <path id="Path_1" data-name="Path 1" d="M129.22,225.493h19.215c-2.569,6.6-8.837,10.634-18.393,10.634-13.972,0-22.6-8.566-22.6-20.286,0-12.113,9.042-20.681,21.165-20.681,8.116,0,14.589,3.545,17.57,8.076l13.972-7.682c-6.061-9.258-17.672-15.757-31.439-15.757C107.543,179.8,91,195.749,91,215.741c0,19.8,16.233,35.749,38.835,35.749,20.139,0,35.447-12.8,35.447-33.877v-5.908H129.22Z" fill="#fff"/>
    <path id="Path_2" data-name="Path 2" d="M128.707,179.8a42.076,42.076,0,0,1,9.714,1.123,39.07,39.07,0,0,1,8.627,3.147A34.025,34.025,0,0,1,159.841,195.1l.31.455-13.97,7.68-.258-.364a17.278,17.278,0,0,0-6.856-5.487A24.857,24.857,0,0,0,128.6,195.16a21.521,21.521,0,0,0-15.129,5.8,19.329,19.329,0,0,0-4.431,6.532,21.7,21.7,0,0,0-1.606,8.351,20.875,20.875,0,0,0,1.567,8.114,18.332,18.332,0,0,0,4.5,6.424c4.07,3.76,9.79,5.747,16.541,5.747,9.19,0,15.722-3.777,18.392-10.634H129.22V211.705h36.062v5.908a36.421,36.421,0,0,1-2.707,14.185,30.328,30.328,0,0,1-7.465,10.657,32.837,32.837,0,0,1-11.241,6.706,41.487,41.487,0,0,1-14.035,2.329,43.354,43.354,0,0,1-15.6-2.8,37.436,37.436,0,0,1-12.293-7.651A34.367,34.367,0,0,1,91,215.741a34.878,34.878,0,0,1,2.915-14.047,35.3,35.3,0,0,1,8-11.422A38.459,38.459,0,0,1,128.707,179.8ZM158.7,195.208a33.161,33.161,0,0,0-12.1-10.25,38.069,38.069,0,0,0-8.406-3.066,41.074,41.074,0,0,0-9.483-1.1,37.464,37.464,0,0,0-26.1,10.2,34.3,34.3,0,0,0-7.777,11.1A33.884,33.884,0,0,0,92,215.741a33.377,33.377,0,0,0,10.626,24.569,36.44,36.44,0,0,0,11.967,7.447,42.358,42.358,0,0,0,15.242,2.734,40.492,40.492,0,0,0,13.7-2.271,31.843,31.843,0,0,0,10.9-6.5,29.336,29.336,0,0,0,7.22-10.308,35.429,35.429,0,0,0,2.629-13.8v-4.908H130.22v11.788H149.9l-.532,1.363a16.292,16.292,0,0,1-7,8.287,23.845,23.845,0,0,1-12.327,2.984c-7.007,0-12.961-2.079-17.219-6.013a19.325,19.325,0,0,1-4.739-6.772,21.868,21.868,0,0,1-1.645-8.5,22.694,22.694,0,0,1,1.682-8.734,20.323,20.323,0,0,1,4.659-6.867,22.514,22.514,0,0,1,15.824-6.08,25.862,25.862,0,0,1,10.886,2.315,18.5,18.5,0,0,1,6.985,5.454Z" fill="rgba(0,0,0,0.63)"/>
    <path id="Path_3" data-name="Path 3" d="M290.379,199.493c-7.294,0-12.021,2.561-14.9,6.5-2.875-4.137-7.4-6.5-13.457-6.5-6.885,0-11.4,2.561-13.768,5.909v-4.529H232.844v49.239h15.412V222.343c0-5.812,2.877-9.258,8.014-9.258,4.932,0,7.4,3.151,7.4,8.074v28.953h15.411V222.343c0-5.812,2.877-9.258,8.015-9.258,4.931,0,7.4,3.151,7.4,8.074v28.953H309.9V219.879C309.9,207.568,302.192,199.493,290.379,199.493Z" fill="#fff"/>
    <path id="Path_4" data-name="Path 4" d="M262.024,199.493a17.772,17.772,0,0,1,7.923,1.7,14.491,14.491,0,0,1,5.534,4.8h0c3.149-4.313,8.161-6.5,14.9-6.5,5.793,0,10.7,1.928,14.19,5.576s5.331,8.767,5.331,14.81v30.233H294.489V221.159a8.661,8.661,0,0,0-1.849-5.883,7.021,7.021,0,0,0-5.547-2.191,7.424,7.424,0,0,0-5.934,2.449,10.328,10.328,0,0,0-2.081,6.809v27.769H263.667V221.159a8.658,8.658,0,0,0-1.849-5.883,7.022,7.022,0,0,0-5.548-2.191,7.422,7.422,0,0,0-5.933,2.449,10.328,10.328,0,0,0-2.081,6.809v27.769H232.844V200.873h15.412V205.4h0C249.814,203.195,253.674,199.493,262.024,199.493Zm13.437,8.223-.8-1.151a13.5,13.5,0,0,0-5.155-4.476,16.785,16.785,0,0,0-7.48-1.6c-7.9,0-11.5,3.437-12.951,5.485l-1.817,2.573v-6.679H233.844v47.239h13.412V222.343a11.144,11.144,0,0,1,2.321-7.459,8.486,8.486,0,0,1,6.693-2.8,8.079,8.079,0,0,1,6.3,2.531,9.614,9.614,0,0,1,2.1,6.543v27.953h13.411V222.343a11.145,11.145,0,0,1,2.321-7.459,8.487,8.487,0,0,1,6.694-2.8,8.077,8.077,0,0,1,6.3,2.531,9.618,9.618,0,0,1,2.1,6.543v27.953H308.9V219.879c0-5.78-1.747-10.662-5.053-14.118s-7.954-5.268-13.468-5.268c-6.4,0-11.14,2.049-14.09,6.09Z" fill="rgba(0,0,0,0.63)"/>
    <path id="Path_5" data-name="Path 5" d="M333.462,200.873H318.051v49.241h15.411Z" fill="#fff"/>
    <path id="Path_6" data-name="Path 6" d="M333.462,250.114H318.051V200.873h15.411Zm-14.411-1h13.411V201.873H319.051Z" fill="rgba(0,0,0,0.63)"/>
    <path id="Path_7" data-name="Path 7" d="M345.358,200.873h-6.883v14.181h6.883v35.059h15.411V215.054h9.556V200.873h-9.556c0-5.712,3.8-7.386,9.556-6.894V179.8C353.269,178.812,345.358,187.084,345.358,200.873Z" fill="#fff"/>
    <path id="Path_8" data-name="Path 8" d="M367.654,179.717c.712,0,1.451.018,2.2.054l.476.023v14.178l-.531-.033c-.437-.028-.864-.041-1.267-.041a9.495,9.495,0,0,0-5.137,1.2,5.224,5.224,0,0,0-1.936,2.217,8.385,8.385,0,0,0-.684,3.556h9.556v14.181h-9.556v35.06H345.358v-35.06h-6.883V200.872h6.883a26.453,26.453,0,0,1,1.5-9.249,16.991,16.991,0,0,1,4.585-6.829C355.219,181.425,360.673,179.717,367.654,179.717Zm1.671,1.032c-.566-.021-1.127-.032-1.671-.032-6.728,0-11.958,1.623-15.543,4.823-3.817,3.408-5.753,8.566-5.753,15.332v1h-6.883v12.181h6.883v35.06h13.411v-35.06h9.556V201.872h-9.556v-1c0-3.078,1.036-5.3,3.08-6.615a10.31,10.31,0,0,1,5.677-1.361c.259,0,.526.005.8.016Z" fill="rgba(0,0,0,0.63)"/>
    <path id="Path_9" data-name="Path 9" d="M408.561,200.873,398.9,231.009l-11.4-30.136H370.547l20.446,46.975c-2.26,6.008-5.65,8.174-12.843,8.174V269.81c14.384.691,23.528-5.513,29.282-21.173L425,200.875Z" fill="#fff"/>
    <path id="Path_10" data-name="Path 10" d="M408.561,200.873H425l-17.567,47.763c-2.878,7.832-6.608,13.3-11.405,16.718-4.256,3.032-9.416,4.506-15.773,4.506-.529,0-1.075-.01-1.623-.031l-.481-.018V256.025l.493-.007c3.423-.048,5.894-.63,7.779-1.83,1.961-1.25,3.414-3.264,4.571-6.339h0l-20.445-46.976H387.5l11.4,30.136h0Zm-21.752,1H372.073l20,45.948-.142.379c-1.238,3.289-2.817,5.46-4.97,6.832a14.987,14.987,0,0,1-7.809,1.976v11.84c.373.01.742.015,1.1.015,6.142,0,11.112-1.413,15.193-4.321,4.612-3.285,8.216-8.575,11.018-16.17l.029-.079,17.073-46.417H409.291l-10.309,32.168-1.014-2.678Z" fill="rgba(0,0,0,0.63)"/>
    <path id="Path_11" data-name="Path 11" d="M325.756,194.852a8.349,8.349,0,1,0-8.7-8.342A8.528,8.528,0,0,0,325.756,194.852Z" fill="#fff"/>
    <path id="Path_12" data-name="Path 12" d="M325.756,178.169a8.349,8.349,0,1,1-8.7,8.341A8.537,8.537,0,0,1,325.756,178.169Zm0,15.683a7.35,7.35,0,1,0-7.7-7.342A7.537,7.537,0,0,0,325.756,193.852Z" fill="rgba(0,0,0,0.63)"/>
    <path id="Path_13" data-name="Path 13" d="M304.281,174.267a8.349,8.349,0,1,0-8.7-8.342A8.528,8.528,0,0,0,304.281,174.267Z" fill="#fff"/>
    <path id="Path_14" data-name="Path 14" d="M304.281,157.584a8.349,8.349,0,1,1-8.7,8.341A8.537,8.537,0,0,1,304.281,157.584Zm0,15.683a7.35,7.35,0,1,0-7.7-7.342A7.537,7.537,0,0,0,304.281,173.267Z" fill="rgba(0,0,0,0.63)"/>
    <path id="Path_15" data-name="Path 15" d="M325.756,153.683a8.349,8.349,0,1,0-8.7-8.342A8.528,8.528,0,0,0,325.756,153.683Z" fill="#fff"/>
    <path id="Path_16" data-name="Path 16" d="M325.756,137a8.349,8.349,0,1,1-8.7,8.341A8.537,8.537,0,0,1,325.756,137Zm0,15.683a7.35,7.35,0,1,0-7.7-7.342A7.537,7.537,0,0,0,325.756,152.683Z" fill="rgba(0,0,0,0.63)"/>
    <path id="Path_17" data-name="Path 17" d="M347.231,174.267a8.349,8.349,0,1,0-8.7-8.342A8.528,8.528,0,0,0,347.231,174.267Z" fill="#fff"/>
    <path id="Path_18" data-name="Path 18" d="M347.231,157.584a8.349,8.349,0,1,1-8.7,8.341A8.537,8.537,0,0,1,347.231,157.584Zm0,15.683a7.35,7.35,0,1,0-7.7-7.342A7.537,7.537,0,0,0,347.231,173.267Z" fill="rgba(0,0,0,0.63)"/>
    <path id="Path_19" data-name="Path 19" d="M208.746,200.872V205.5c-3.393-3.743-8.425-6.008-15.308-6.008-13.461,0-24.557,11.325-24.557,26s11.1,26,24.557,26c6.883,0,11.917-2.264,15.308-6.007v4.628h15.411v-49.24Zm5.276,26.324a3.253,3.253,0,0,1-.267,1.289,3.359,3.359,0,0,1-.762,1.093,3.525,3.525,0,0,1-1.14.73,3.648,3.648,0,0,1-1.344.256h-5.184a3.591,3.591,0,0,0-2.484.986,3.3,3.3,0,0,0-1.03,2.381V238.9a3.3,3.3,0,0,1-1.029,2.381,3.593,3.593,0,0,1-2.484.986h-3.555a3.591,3.591,0,0,1-2.484-.986,3.3,3.3,0,0,1-1.03-2.381v-4.971a3.294,3.294,0,0,0-1.029-2.38,3.59,3.59,0,0,0-2.484-.987H182.53a3.657,3.657,0,0,1-1.345-.256,3.531,3.531,0,0,1-1.139-.73,3.359,3.359,0,0,1-.762-1.093,3.235,3.235,0,0,1-.267-1.289v-3.408a3.242,3.242,0,0,1,.267-1.289,3.358,3.358,0,0,1,.762-1.093,3.548,3.548,0,0,1,1.139-.73,3.657,3.657,0,0,1,1.345-.256h5.186a3.593,3.593,0,0,0,2.484-.986,3.3,3.3,0,0,0,1.029-2.381v-4.97a3.3,3.3,0,0,1,1.029-2.381,3.6,3.6,0,0,1,2.485-.988H198.3a3.651,3.651,0,0,1,1.345.257,3.536,3.536,0,0,1,1.14.73,3.367,3.367,0,0,1,.761,1.093,3.226,3.226,0,0,1,.267,1.289v4.97a3.235,3.235,0,0,0,.268,1.288,3.356,3.356,0,0,0,.761,1.093,3.531,3.531,0,0,0,1.14.73,3.65,3.65,0,0,0,1.345.256h5.184a3.648,3.648,0,0,1,1.344.256,3.542,3.542,0,0,1,1.14.73,3.358,3.358,0,0,1,.762,1.093,3.26,3.26,0,0,1,.267,1.289Z" fill="#fff"/>
    <path id="Path_20" data-name="Path 20" d="M193.438,251.491a23.481,23.481,0,0,1-9.514-2,24.306,24.306,0,0,1-7.813-5.5,27.29,27.29,0,0,1,0-37.006,24.306,24.306,0,0,1,7.813-5.5,23.477,23.477,0,0,1,9.514-2,23.728,23.728,0,0,1,8.963,1.6,17.254,17.254,0,0,1,6.345,4.408h0v-4.63h15.411v49.24H208.746v-4.628h0a17.238,17.238,0,0,1-6.344,4.406A23.74,23.74,0,0,1,193.438,251.491Zm0-51a22.483,22.483,0,0,0-9.111,1.914,23.311,23.311,0,0,0-7.492,5.274,26.291,26.291,0,0,0,0,35.624,23.31,23.31,0,0,0,7.492,5.272,22.488,22.488,0,0,0,9.111,1.914c6.252,0,11.153-1.91,14.566-5.678l1.742-1.921v6.22h13.411v-47.24H209.746v6.222L208,206.173C204.588,202.4,199.688,200.493,193.438,200.493Zm4.86,42.776h-3.555A4.562,4.562,0,0,1,191.567,242a4.269,4.269,0,0,1-1.337-3.1v-4.97a2.263,2.263,0,0,0-.293-1.108l-2.347-1.26h-5.06a4.615,4.615,0,0,1-1.714-.327,4.477,4.477,0,0,1-1.462-.937,4.326,4.326,0,0,1-.988-1.419,4.225,4.225,0,0,1-.343-1.467l-.006-.005v-3.621a4.233,4.233,0,0,1,.349-1.685,4.341,4.341,0,0,1,.988-1.419,4.479,4.479,0,0,1,1.464-.937,4.613,4.613,0,0,1,1.713-.327h4.986l2.714-2.581v-4.755a4.318,4.318,0,0,1,1.336-3.1,4.528,4.528,0,0,1,1.943-1.1l-.21-.165h5a4.626,4.626,0,0,1,1.715.327,4.52,4.52,0,0,1,1.462.938,4.394,4.394,0,0,1,.763.971l.026-.011.193.446.005.013.006.013.192.446-.026.011a4.185,4.185,0,0,1,.177,1.216v1.846l6.972,5.49h.726a4.615,4.615,0,0,1,1.714.327,4.485,4.485,0,0,1,1.462.937,4.358,4.358,0,0,1,.988,1.418,4.235,4.235,0,0,1,.349,1.686V227.2a4.227,4.227,0,0,1-.349,1.685,4.345,4.345,0,0,1-.988,1.419,4.485,4.485,0,0,1-1.463.937,4.614,4.614,0,0,1-1.713.327h-4.841L202.81,239A4.27,4.27,0,0,1,201.474,242,4.562,4.562,0,0,1,198.3,243.269Zm-7.1-9.766a3.236,3.236,0,0,1,.029.427V238.9a3.278,3.278,0,0,0,1.029,2.381,3.567,3.567,0,0,0,2.484.986H198.3a3.567,3.567,0,0,0,2.484-.986,3.286,3.286,0,0,0,1.016-2.089Zm-.555-1.433,11.164,6v-4.134a3.284,3.284,0,0,1,1.03-2.382,3.615,3.615,0,0,1,2.484-.986h4.982l3.715-3.581v-2.953l-4.586-3.611h-4.111a3.622,3.622,0,0,1-1.345-.256,3.494,3.494,0,0,1-1.14-.729,3.322,3.322,0,0,1-.762-1.094,3.22,3.22,0,0,1-.268-1.287v-2.637l-7.035-5.539-3.546,3.42v3.591h0l0,1.168a3.283,3.283,0,0,1-1.03,2.38,3.615,3.615,0,0,1-2.484.986h-4.984L179.017,224v2.983l3.715,3.581h4.984a3.616,3.616,0,0,1,2.484.987,3.4,3.4,0,0,1,.441.516Zm13.906-.391a2.55,2.55,0,0,0-1.019.592,2.292,2.292,0,0,0-.722,1.66v2.277Zm-25.136-2.922a3.348,3.348,0,0,0,.629.82,3.469,3.469,0,0,0,.838.594Zm34.2,0-1.466,1.413a3.468,3.468,0,0,0,.837-.593A3.356,3.356,0,0,0,213.621,228.758Zm-2.5-8.288,2.668,2.1-.03-.072a3.362,3.362,0,0,0-.762-1.093,3.491,3.491,0,0,0-1.139-.729A3.612,3.612,0,0,0,211.117,220.471Zm-30.233.342a3.466,3.466,0,0,0-.838.594,3.371,3.371,0,0,0-.629.82Zm21.927-5.609v1.85a2.228,2.228,0,0,0,.186.891,2.33,2.33,0,0,0,.535.768,2.5,2.5,0,0,0,.817.522,2.628,2.628,0,0,0,.977.186h2.841Zm-6.625-6.489,5.625,4.429v-1.059a3.208,3.208,0,0,0-.267-1.289h0a3.357,3.357,0,0,0-.762-1.094,3.523,3.523,0,0,0-1.139-.73,3.63,3.63,0,0,0-1.345-.257Zm-3.087.39a3.521,3.521,0,0,0-.841.6,3.36,3.36,0,0,0-.625.817Z" fill="rgba(0,0,0,0.63)"/>
  </g>
</svg>
